<svg xmlns="http://www.w3.org/2000/svg" viewBox="0 0 720 460" width="720" height="460" role="img"><title>Linocut of a three-deck bread oven with loaves glowing in each window</title><defs><filter id="grain" x="0" y="0" width="100%" height="100%">
<feTurbulence type="fractalNoise" baseFrequency=".9" numOctaves="2" seed="3" result="n"/>
<feColorMatrix in="n" type="matrix" values="0 0 0 0 0  0 0 0 0 0  0 0 0 0 0  0 0 0 -1.6 1.05" result="m"/>
<feComposite in="SourceGraphic" in2="m" operator="in"/></filter>
<filter id="rough"><feTurbulence type="fractalNoise" baseFrequency=".035" numOctaves="2" seed="7"/>
<feDisplacementMap in="SourceGraphic" scale="5"/></filter></defs><g filter="url(#rough)"><rect x="70" y="40" width="580" height="360" rx="6" fill="#231A14"/><rect x="70" y="40" width="580" height="360" rx="6" fill="#3B2418" opacity=".6" filter="url(#grain)"/><rect x="108" y="72" width="504" height="84" fill="#3B2418" stroke="#F5EEDF" stroke-width="3"/><rect x="250" y="88" width="220" height="44" rx="2" fill="#D9A441"/><rect x="250" y="88" width="220" height="44" fill="#C8402C" opacity=".35" filter="url(#grain)"/><path d="M303.4,124.0 C303.5,124.6 303.2,124.7 302.8,125.1 C302.4,125.4 301.6,125.8 300.8,126.1 C300.1,126.4 299.1,126.7 298.2,126.9 C297.2,127.2 296.3,127.5 295.1,127.8 C293.9,128.0 292.5,128.1 291.1,128.3 C289.7,128.5 288.3,128.7 286.8,128.8 C285.2,128.8 283.6,128.8 282.0,128.7 C280.4,128.7 278.9,128.7 277.3,128.7 C275.8,128.6 274.3,128.5 272.8,128.3 C271.4,128.2 269.8,128.1 268.6,127.8 C267.4,127.6 266.5,127.3 265.6,127.0 C264.7,126.7 264.1,126.4 263.3,126.1 C262.6,125.7 261.6,125.4 261.2,125.1 C260.8,124.7 260.7,124.6 260.9,124.0 C261.0,123.4 261.5,122.3 261.8,121.4 C262.1,120.5 262.1,119.5 262.6,118.7 C263.2,117.8 264.1,117.0 265.1,116.3 C266.1,115.6 267.4,115.0 268.7,114.4 C269.9,113.9 271.2,113.3 272.7,112.9 C274.1,112.6 275.8,112.6 277.4,112.4 C278.9,112.3 280.4,111.9 282.0,111.8 C283.6,111.8 285.2,111.8 286.8,112.0 C288.3,112.2 289.8,112.6 291.2,113.1 C292.6,113.5 293.9,114.0 295.1,114.6 C296.2,115.2 297.1,116.0 298.0,116.7 C299.0,117.4 300.1,118.0 300.8,118.8 C301.6,119.6 302.2,120.4 302.6,121.3 C303.0,122.2 303.4,123.4 303.4,124.0 Z" fill="#3B2418"/><path d="M354.5,124.0 C354.7,124.6 355.1,124.7 354.9,125.1 C354.7,125.4 354.0,125.8 353.2,126.1 C352.4,126.4 351.2,126.7 350.2,126.9 C349.2,127.2 348.3,127.5 347.1,127.8 C345.9,128.0 344.5,128.1 343.1,128.3 C341.7,128.5 340.2,128.6 338.7,128.7 C337.2,128.8 335.5,128.9 334.0,128.9 C332.5,128.9 330.9,128.7 329.4,128.6 C328.0,128.5 326.6,128.3 325.1,128.2 C323.7,128.1 321.9,128.0 320.6,127.8 C319.4,127.6 318.6,127.3 317.6,127.0 C316.7,126.7 315.4,126.4 314.8,126.1 C314.2,125.8 314.4,125.4 314.1,125.0 C313.9,124.7 313.2,124.6 313.1,124.0 C312.9,123.4 312.9,122.1 313.3,121.3 C313.6,120.4 314.7,119.7 315.4,118.9 C316.0,118.0 316.3,117.1 317.1,116.3 C318.0,115.6 319.3,114.9 320.6,114.4 C321.9,113.9 323.7,113.8 325.1,113.5 C326.6,113.2 328.0,112.9 329.5,112.6 C330.9,112.4 332.4,112.1 334.0,112.0 C335.6,111.9 337.3,111.8 338.8,112.0 C340.3,112.2 341.7,112.8 343.0,113.3 C344.4,113.7 345.7,114.2 346.9,114.8 C348.1,115.3 349.4,115.9 350.3,116.6 C351.3,117.2 351.8,118.1 352.4,118.9 C353.0,119.7 353.8,120.5 354.1,121.4 C354.5,122.2 354.4,123.4 354.5,124.0 Z" fill="#3B2418"/><path d="M407.6,124.0 C407.7,124.6 407.5,124.8 407.0,125.1 C406.5,125.4 405.3,125.7 404.4,126.0 C403.6,126.3 402.9,126.6 402.0,126.9 C401.2,127.2 400.5,127.6 399.4,127.8 C398.2,128.1 396.7,128.2 395.2,128.4 C393.8,128.5 392.3,128.7 390.7,128.7 C389.2,128.8 387.6,128.7 386.0,128.7 C384.4,128.7 382.8,128.8 381.3,128.7 C379.8,128.6 378.2,128.5 376.8,128.4 C375.4,128.2 374.0,128.0 372.8,127.8 C371.7,127.5 370.9,127.2 369.9,126.9 C369.0,126.6 367.9,126.4 367.2,126.1 C366.4,125.8 366.1,125.4 365.7,125.1 C365.3,124.7 364.8,124.6 364.7,124.0 C364.6,123.4 364.6,122.1 364.9,121.3 C365.2,120.4 365.8,119.4 366.6,118.7 C367.3,117.9 368.5,117.2 369.5,116.5 C370.6,115.8 371.7,115.2 373.0,114.6 C374.2,114.1 375.6,113.7 377.0,113.3 C378.4,113.0 380.0,112.8 381.5,112.6 C383.0,112.5 384.5,112.4 386.0,112.3 C387.5,112.3 389.2,112.2 390.7,112.3 C392.2,112.5 393.6,112.9 395.0,113.3 C396.4,113.7 397.7,114.2 399.0,114.7 C400.3,115.2 401.8,115.7 402.8,116.3 C403.8,117.0 404.3,118.0 404.9,118.8 C405.6,119.6 406.1,120.5 406.5,121.3 C407.0,122.2 407.5,123.4 407.6,124.0 Z" fill="#3B2418"/><path d="M458.7,124.0 C458.7,124.6 458.8,124.7 458.5,125.1 C458.2,125.4 457.4,125.7 456.8,126.1 C456.1,126.4 455.5,126.7 454.5,127.0 C453.6,127.3 452.5,127.6 451.2,127.8 C449.9,128.0 448.3,128.1 446.9,128.2 C445.4,128.3 444.0,128.4 442.5,128.5 C441.1,128.7 439.5,128.9 438.0,128.9 C436.5,128.9 434.9,128.7 433.4,128.6 C431.9,128.5 430.5,128.4 429.0,128.3 C427.6,128.1 425.8,128.1 424.5,127.9 C423.3,127.7 422.6,127.3 421.6,127.0 C420.6,126.7 419.4,126.4 418.7,126.1 C418.0,125.8 417.9,125.4 417.6,125.1 C417.2,124.7 416.8,124.6 416.8,124.0 C416.9,123.4 417.6,122.3 418.0,121.4 C418.3,120.5 418.4,119.6 418.9,118.8 C419.5,117.9 420.2,117.0 421.2,116.4 C422.2,115.7 423.6,115.2 424.9,114.6 C426.1,114.1 427.4,113.4 428.8,113.0 C430.2,112.6 431.7,112.3 433.3,112.2 C434.8,112.1 436.4,112.3 438.0,112.3 C439.6,112.3 441.2,112.0 442.7,112.1 C444.3,112.3 445.8,112.7 447.2,113.1 C448.5,113.6 449.8,114.1 450.9,114.7 C452.1,115.3 452.9,116.1 454.0,116.7 C455.0,117.4 456.6,117.9 457.3,118.7 C458.1,119.4 458.2,120.4 458.4,121.3 C458.7,122.2 458.7,123.4 458.7,124.0 Z" fill="#3B2418"/><path d="M180,140 H540" stroke="#F5EEDF" stroke-width="7" stroke-linecap="round"/><circle cx="146" cy="114" r="9" fill="none" stroke="#F5EEDF" stroke-width="3"/><path d="M146,114 l5,-5" stroke="#F5EEDF" stroke-width="3"/><path d="M500.0,90.0 Q500.1,110.8 508.0,130.0 Q507.9,109.2 500.0,90.0 Z" fill="#F5EEDF" opacity=".6"/><path d="M518.0,90.0 Q518.1,110.8 526.0,130.0 Q525.9,109.2 518.0,90.0 Z" fill="#F5EEDF" opacity=".6"/><path d="M536.0,90.0 Q536.1,110.8 544.0,130.0 Q543.9,109.2 536.0,90.0 Z" fill="#F5EEDF" opacity=".6"/><path d="M554.0,90.0 Q554.1,110.8 562.0,130.0 Q561.9,109.2 554.0,90.0 Z" fill="#F5EEDF" opacity=".6"/><path d="M572.0,90.0 Q572.1,110.8 580.0,130.0 Q579.9,109.2 572.0,90.0 Z" fill="#F5EEDF" opacity=".6"/><rect x="108" y="180" width="504" height="84" fill="#3B2418" stroke="#F5EEDF" stroke-width="3"/><rect x="250" y="196" width="220" height="44" rx="2" fill="#D9A441"/><rect x="250" y="196" width="220" height="44" fill="#C8402C" opacity=".35" filter="url(#grain)"/><path d="M302.7,232.0 C302.6,232.6 302.3,232.7 302.0,233.0 C301.7,233.4 301.5,233.8 300.8,234.1 C300.2,234.4 299.1,234.7 298.1,234.9 C297.1,235.2 295.9,235.4 294.8,235.7 C293.6,235.9 292.4,236.1 291.1,236.3 C289.7,236.5 288.3,236.7 286.8,236.8 C285.3,236.9 283.6,236.9 282.0,236.9 C280.4,236.9 278.7,236.9 277.3,236.8 C275.8,236.6 274.4,236.4 273.0,236.3 C271.6,236.1 270.1,236.0 268.9,235.8 C267.7,235.5 266.7,235.2 265.8,235.0 C264.9,234.7 264.1,234.4 263.5,234.0 C262.8,233.7 262.4,233.4 262.0,233.0 C261.7,232.7 261.5,232.6 261.4,232.0 C261.2,231.4 260.8,230.1 261.0,229.3 C261.2,228.4 262.0,227.5 262.7,226.7 C263.4,225.9 264.3,225.1 265.3,224.4 C266.3,223.7 267.4,222.9 268.7,222.4 C270.0,222.0 271.6,221.7 273.1,221.4 C274.5,221.1 275.9,220.7 277.4,220.4 C278.9,220.2 280.4,220.0 282.0,219.9 C283.6,219.9 285.2,220.0 286.7,220.1 C288.3,220.3 289.9,220.6 291.3,221.0 C292.7,221.3 294.3,221.8 295.4,222.4 C296.5,223.0 297.1,224.0 298.0,224.7 C299.0,225.4 300.3,226.0 301.0,226.8 C301.8,227.5 302.4,228.4 302.7,229.3 C303.0,230.2 302.8,231.4 302.7,232.0 Z" fill="#3B2418"/><path d="M355.2,232.0 C355.1,232.6 355.1,232.7 354.8,233.1 C354.5,233.4 353.9,233.8 353.3,234.1 C352.6,234.5 351.8,234.8 350.9,235.1 C349.9,235.4 348.5,235.6 347.3,235.8 C346.0,236.0 344.8,236.3 343.3,236.4 C341.9,236.6 340.1,236.5 338.5,236.5 C337.0,236.6 335.6,236.7 334.0,236.8 C332.4,236.8 330.7,236.9 329.2,236.8 C327.7,236.7 326.2,236.5 324.8,236.4 C323.4,236.2 321.7,236.1 320.6,235.8 C319.5,235.6 318.9,235.2 318.0,234.9 C317.0,234.6 315.8,234.4 315.1,234.1 C314.4,233.8 314.2,233.4 313.8,233.1 C313.5,232.7 313.0,232.6 312.9,232.0 C312.9,231.4 313.0,230.2 313.4,229.3 C313.9,228.5 314.9,227.7 315.6,226.9 C316.4,226.2 317.0,225.3 317.9,224.6 C318.8,223.9 319.9,223.4 321.1,222.7 C322.2,222.1 323.3,221.4 324.7,220.9 C326.0,220.5 327.7,220.2 329.3,220.1 C330.8,220.0 332.4,220.2 334.0,220.2 C335.6,220.2 337.3,219.9 338.8,220.1 C340.2,220.3 341.5,221.0 342.9,221.4 C344.3,221.8 346.0,222.0 347.2,222.6 C348.4,223.1 349.2,224.0 350.1,224.7 C350.9,225.4 351.5,226.2 352.4,226.9 C353.2,227.7 354.5,228.4 354.9,229.3 C355.4,230.1 355.2,231.4 355.2,232.0 Z" fill="#3B2418"/><path d="M407.4,232.0 C407.4,232.6 407.3,232.7 406.9,233.1 C406.5,233.4 405.7,233.8 404.9,234.1 C404.1,234.4 403.2,234.7 402.2,234.9 C401.1,235.2 399.9,235.4 398.7,235.6 C397.5,235.9 396.5,236.2 395.2,236.4 C393.9,236.5 392.2,236.6 390.7,236.7 C389.1,236.8 387.6,236.9 386.0,236.9 C384.4,236.9 382.9,236.7 381.4,236.6 C379.8,236.6 378.1,236.6 376.7,236.4 C375.4,236.2 374.3,235.9 373.1,235.7 C371.8,235.5 370.3,235.3 369.3,235.0 C368.2,234.8 367.4,234.4 366.8,234.1 C366.2,233.8 365.9,233.4 365.6,233.1 C365.3,232.7 365.0,232.6 365.0,232.0 C364.9,231.4 364.9,230.2 365.3,229.3 C365.7,228.4 366.7,227.7 367.4,226.9 C368.1,226.1 368.7,225.2 369.5,224.5 C370.4,223.8 371.4,223.0 372.7,222.4 C373.9,221.9 375.6,221.7 377.0,221.3 C378.4,220.9 379.7,220.3 381.2,220.1 C382.7,219.8 384.4,219.9 386.0,219.9 C387.6,219.9 389.3,219.8 390.8,220.1 C392.3,220.3 393.7,220.8 395.0,221.3 C396.4,221.8 397.5,222.3 398.8,222.8 C400.1,223.4 401.6,223.7 402.7,224.4 C403.8,225.0 404.7,225.9 405.3,226.7 C405.9,227.5 406.1,228.5 406.4,229.3 C406.8,230.2 407.3,231.4 407.4,232.0 Z" fill="#3B2418"/><path d="M458.8,232.0 C458.6,232.6 458.3,232.7 458.0,233.0 C457.8,233.4 457.8,233.8 457.1,234.1 C456.4,234.4 455.0,234.6 454.0,234.9 C453.0,235.2 452.3,235.5 451.1,235.8 C450.0,236.0 448.5,236.2 447.0,236.3 C445.6,236.4 444.1,236.5 442.5,236.6 C441.0,236.6 439.5,236.8 438.0,236.8 C436.5,236.8 435.0,236.6 433.5,236.5 C431.9,236.5 430.3,236.5 428.9,236.3 C427.6,236.2 426.4,235.9 425.2,235.7 C424.1,235.4 423.0,235.2 422.0,234.9 C421.0,234.7 420.0,234.4 419.2,234.1 C418.4,233.8 417.4,233.4 417.1,233.1 C416.8,232.7 417.4,232.6 417.5,232.0 C417.6,231.4 417.6,230.2 417.9,229.4 C418.1,228.5 418.4,227.6 418.9,226.8 C419.5,225.9 420.2,225.0 421.1,224.3 C422.1,223.6 423.5,223.1 424.8,222.6 C426.1,222.1 427.6,221.7 428.9,221.3 C430.3,220.8 431.7,220.1 433.2,220.0 C434.7,219.8 436.4,220.3 438.0,220.3 C439.6,220.3 441.3,219.9 442.8,220.0 C444.3,220.2 445.7,220.9 447.0,221.3 C448.3,221.8 449.6,222.3 450.8,222.8 C452.0,223.4 453.1,224.0 454.0,224.7 C455.0,225.4 455.9,226.1 456.7,226.9 C457.5,227.6 458.5,228.4 458.9,229.3 C459.2,230.1 458.9,231.4 458.8,232.0 Z" fill="#3B2418"/><path d="M180,248 H540" stroke="#F5EEDF" stroke-width="7" stroke-linecap="round"/><circle cx="146" cy="222" r="9" fill="none" stroke="#F5EEDF" stroke-width="3"/><path d="M146,222 l5,-5" stroke="#F5EEDF" stroke-width="3"/><path d="M500.0,198.0 Q500.1,218.8 508.0,238.0 Q507.9,217.2 500.0,198.0 Z" fill="#F5EEDF" opacity=".6"/><path d="M518.0,198.0 Q518.1,218.8 526.0,238.0 Q525.9,217.2 518.0,198.0 Z" fill="#F5EEDF" opacity=".6"/><path d="M536.0,198.0 Q536.1,218.8 544.0,238.0 Q543.9,217.2 536.0,198.0 Z" fill="#F5EEDF" opacity=".6"/><path d="M554.0,198.0 Q554.1,218.8 562.0,238.0 Q561.9,217.2 554.0,198.0 Z" fill="#F5EEDF" opacity=".6"/><path d="M572.0,198.0 Q572.1,218.8 580.0,238.0 Q579.9,217.2 572.0,198.0 Z" fill="#F5EEDF" opacity=".6"/><rect x="108" y="288" width="504" height="84" fill="#3B2418" stroke="#F5EEDF" stroke-width="3"/><rect x="250" y="304" width="220" height="44" rx="2" fill="#D9A441"/><rect x="250" y="304" width="220" height="44" fill="#C8402C" opacity=".35" filter="url(#grain)"/><path d="M302.7,340.0 C302.7,340.6 303.4,340.8 303.0,341.1 C302.7,341.4 301.2,341.7 300.5,342.0 C299.8,342.4 299.6,342.8 298.6,343.0 C297.7,343.3 296.0,343.5 294.8,343.7 C293.5,343.9 292.3,344.1 291.0,344.3 C289.6,344.5 288.3,344.7 286.8,344.8 C285.3,344.9 283.6,344.7 282.0,344.7 C280.4,344.7 278.8,344.8 277.3,344.7 C275.8,344.7 274.3,344.5 272.9,344.3 C271.5,344.2 270.2,344.0 268.9,343.7 C267.7,343.5 266.5,343.3 265.6,343.0 C264.7,342.7 264.2,342.4 263.4,342.0 C262.7,341.7 261.4,341.4 261.1,341.1 C260.8,340.7 261.4,340.6 261.5,340.0 C261.6,339.4 261.5,338.2 261.9,337.4 C262.2,336.5 263.0,335.7 263.6,334.9 C264.3,334.2 264.9,333.3 265.8,332.6 C266.7,331.9 267.8,331.3 269.0,330.7 C270.1,330.1 271.3,329.3 272.7,328.9 C274.1,328.5 275.8,328.5 277.4,328.4 C278.9,328.3 280.5,328.3 282.0,328.3 C283.5,328.3 285.0,328.4 286.6,328.5 C288.2,328.6 290.0,328.5 291.4,328.9 C292.7,329.3 293.6,330.3 294.8,330.9 C295.9,331.5 297.5,331.8 298.5,332.5 C299.5,333.1 300.1,334.0 300.8,334.8 C301.5,335.6 302.4,336.4 302.7,337.3 C303.0,338.2 302.6,339.4 302.7,340.0 Z" fill="#3B2418"/><path d="M355.0,340.0 C354.9,340.6 354.7,340.7 354.3,341.1 C353.9,341.4 353.1,341.7 352.5,342.0 C351.9,342.4 351.7,342.8 350.8,343.1 C349.8,343.3 348.0,343.4 346.7,343.6 C345.4,343.9 344.4,344.1 343.1,344.3 C341.8,344.5 340.3,344.7 338.8,344.8 C337.3,344.9 335.6,344.7 334.0,344.7 C332.4,344.7 330.8,344.7 329.3,344.7 C327.8,344.6 326.2,344.5 324.8,344.4 C323.5,344.2 322.5,343.9 321.3,343.6 C320.1,343.4 318.8,343.2 317.7,343.0 C316.6,342.7 315.5,342.4 314.8,342.1 C314.2,341.8 313.9,341.4 313.6,341.1 C313.2,340.7 312.7,340.6 312.7,340.0 C312.8,339.4 313.5,338.2 313.9,337.4 C314.4,336.5 314.7,335.7 315.4,334.9 C316.0,334.1 317.0,333.4 318.0,332.7 C318.9,332.0 319.8,331.2 320.9,330.6 C322.0,330.0 323.3,329.3 324.7,328.9 C326.1,328.5 327.7,328.4 329.3,328.2 C330.9,328.1 332.4,327.8 334.0,327.8 C335.6,327.8 337.1,328.2 338.6,328.4 C340.2,328.6 341.9,328.6 343.2,329.0 C344.6,329.4 345.6,330.2 346.8,330.8 C347.9,331.4 349.2,332.0 350.2,332.6 C351.3,333.3 352.4,334.0 353.1,334.7 C353.9,335.5 354.4,336.4 354.8,337.3 C355.1,338.2 355.0,339.4 355.0,340.0 Z" fill="#3B2418"/><path d="M407.1,340.0 C407.2,340.6 406.7,340.7 406.4,341.1 C406.0,341.4 405.7,341.8 405.0,342.1 C404.3,342.4 403.1,342.7 402.1,342.9 C401.2,343.2 400.5,343.6 399.3,343.8 C398.2,344.1 396.7,344.3 395.3,344.4 C393.9,344.6 392.3,344.7 390.7,344.7 C389.2,344.8 387.6,344.7 386.0,344.7 C384.4,344.7 382.8,344.8 381.3,344.7 C379.8,344.6 378.4,344.4 377.0,344.3 C375.6,344.1 374.4,343.9 373.1,343.7 C371.8,343.5 370.2,343.3 369.1,343.1 C368.0,342.8 367.0,342.5 366.5,342.1 C366.0,341.8 366.4,341.4 366.1,341.0 C365.8,340.7 364.7,340.6 364.5,340.0 C364.4,339.4 365.0,338.2 365.4,337.3 C365.8,336.5 366.5,335.6 367.2,334.8 C367.9,334.0 368.9,333.3 369.8,332.6 C370.7,331.9 371.6,331.1 372.8,330.5 C374.0,330.0 375.5,329.6 376.9,329.2 C378.3,328.8 379.8,328.4 381.3,328.2 C382.8,327.9 384.5,327.8 386.0,327.9 C387.5,327.9 389.0,328.4 390.6,328.6 C392.1,328.7 393.8,328.7 395.3,329.0 C396.7,329.3 398.2,329.8 399.5,330.3 C400.7,330.9 402.0,331.6 402.9,332.3 C403.8,333.0 404.5,333.9 405.0,334.8 C405.6,335.6 405.6,336.5 405.9,337.4 C406.3,338.3 407.0,339.4 407.1,340.0 Z" fill="#3B2418"/><path d="M458.9,340.0 C459.0,340.6 458.8,340.7 458.5,341.1 C458.3,341.4 458.1,341.8 457.4,342.1 C456.7,342.5 455.4,342.7 454.4,343.0 C453.3,343.3 452.3,343.5 451.1,343.8 C449.9,344.0 448.6,344.2 447.2,344.3 C445.7,344.5 444.1,344.5 442.6,344.6 C441.1,344.7 439.5,344.8 438.0,344.8 C436.5,344.8 434.8,344.8 433.3,344.7 C431.7,344.6 430.1,344.6 428.7,344.4 C427.4,344.2 426.4,343.9 425.2,343.7 C424.1,343.4 422.7,343.2 421.8,343.0 C420.8,342.7 420.3,342.3 419.5,342.0 C418.8,341.7 417.6,341.4 417.1,341.1 C416.7,340.7 416.6,340.6 416.8,340.0 C416.9,339.4 417.8,338.3 418.1,337.4 C418.4,336.5 418.0,335.5 418.5,334.6 C419.0,333.8 420.1,333.0 421.1,332.3 C422.2,331.6 423.5,331.1 424.8,330.5 C426.1,330.0 427.4,329.4 428.8,329.1 C430.3,328.8 431.9,328.7 433.4,328.5 C435.0,328.4 436.5,328.4 438.0,328.3 C439.5,328.3 441.2,328.1 442.7,328.3 C444.2,328.5 445.5,329.1 446.9,329.5 C448.2,329.9 449.6,330.3 450.8,330.8 C452.1,331.3 453.2,331.9 454.2,332.6 C455.1,333.3 455.7,334.2 456.4,334.9 C457.1,335.7 458.0,336.5 458.4,337.3 C458.9,338.2 458.9,339.4 458.9,340.0 Z" fill="#3B2418"/><path d="M180,356 H540" stroke="#F5EEDF" stroke-width="7" stroke-linecap="round"/><circle cx="146" cy="330" r="9" fill="none" stroke="#F5EEDF" stroke-width="3"/><path d="M146,330 l5,-5" stroke="#F5EEDF" stroke-width="3"/><path d="M500.0,306.0 Q500.1,326.8 508.0,346.0 Q507.9,325.2 500.0,306.0 Z" fill="#F5EEDF" opacity=".6"/><path d="M518.0,306.0 Q518.1,326.8 526.0,346.0 Q525.9,325.2 518.0,306.0 Z" fill="#F5EEDF" opacity=".6"/><path d="M536.0,306.0 Q536.1,326.8 544.0,346.0 Q543.9,325.2 536.0,306.0 Z" fill="#F5EEDF" opacity=".6"/><path d="M554.0,306.0 Q554.1,326.8 562.0,346.0 Q561.9,325.2 554.0,306.0 Z" fill="#F5EEDF" opacity=".6"/><path d="M572.0,306.0 Q572.1,326.8 580.0,346.0 Q579.9,325.2 572.0,306.0 Z" fill="#F5EEDF" opacity=".6"/><rect x="56" y="398" width="608" height="18" fill="#231A14"/><rect x="84" y="414" width="16" height="34" fill="#231A14"/><rect x="620" y="414" width="16" height="34" fill="#231A14"/><path d="M688,450 L640,120" stroke="#7A4A26" stroke-width="10" stroke-linecap="round"/><path d="M662.2,77.7 C662.9,81.6 663.3,85.8 663.1,89.5 C663.0,93.3 662.0,96.8 661.4,100.3 C660.7,103.7 660.1,107.0 659.3,110.4 C658.5,113.7 657.8,117.4 656.5,120.2 C655.2,122.9 653.4,125.1 651.6,127.0 C649.8,128.9 647.8,130.6 645.8,131.6 C643.7,132.6 641.4,132.8 639.2,133.1 C637.0,133.4 634.7,133.8 632.4,133.3 C630.2,132.9 627.8,131.8 625.6,130.4 C623.4,129.0 621.1,127.3 619.1,125.0 C617.1,122.7 615.3,119.7 613.5,116.9 C611.8,114.1 609.9,111.3 608.4,108.0 C607.0,104.8 605.8,101.1 604.8,97.5 C603.7,93.8 602.7,90.0 602.0,86.2 C601.4,82.4 600.9,78.3 600.8,74.5 C600.7,70.6 601.0,66.6 601.6,63.1 C602.1,59.5 603.2,56.2 604.2,53.1 C605.3,50.0 606.4,47.0 607.9,44.4 C609.3,41.9 611.0,39.6 612.8,37.8 C614.6,36.0 616.6,34.7 618.6,33.6 C620.6,32.6 622.7,31.9 624.9,31.5 C627.1,31.0 629.3,30.5 631.6,30.9 C633.8,31.4 636.1,32.7 638.3,34.1 C640.5,35.5 642.7,37.4 644.8,39.3 C646.9,41.3 649.2,43.3 651.0,46.1 C652.8,48.8 654.2,52.5 655.7,55.9 C657.1,59.3 658.3,62.8 659.4,66.4 C660.5,70.1 661.6,73.9 662.2,77.7 Z" fill="#D9A441" stroke="#231A14" stroke-width="4"/><path d="M618.0,50.0 Q614.0,80.9 616.0,112.0 Q620.0,81.1 618.0,50.0 Z" fill="#B07A2C"/><path d="M625.0,50.0 Q621.5,81.0 624.0,112.0 Q627.5,81.0 625.0,50.0 Z" fill="#B07A2C"/><path d="M632.0,50.0 Q629.0,81.0 632.0,112.0 Q635.0,81.0 632.0,50.0 Z" fill="#B07A2C"/><path d="M639.0,50.0 Q636.5,81.0 640.0,112.0 Q642.5,81.0 639.0,50.0 Z" fill="#B07A2C"/></g></svg>