<svg xmlns="http://www.w3.org/2000/svg">
<defs><style>symbol{overflow:visible}</style></defs>
<symbol id="phone" viewBox="0 0 24 24"><path fill="none" stroke="currentColor" stroke-width="2" stroke-linecap="round" stroke-linejoin="round" d="M5 3h4l2 5-2.5 1.5a11 11 0 005 5L15 12l5 2v4a2 2 0 01-2 2A16 16 0 013 5a2 2 0 012-2z"/></symbol>
<symbol id="refill" viewBox="0 0 24 24"><path fill="none" stroke="currentColor" stroke-width="2" stroke-linecap="round" stroke-linejoin="round" d="M4 5h16v11H9l-5 4z"/><path fill="none" stroke="currentColor" stroke-width="2" stroke-linecap="round" d="M9 10.5h6M12 7.5v6"/></symbol>
<symbol id="pin" viewBox="0 0 24 24"><path fill="none" stroke="currentColor" stroke-width="2" stroke-linejoin="round" d="M12 21s-7-6.2-7-11.5a7 7 0 0114 0C19 14.8 12 21 12 21z"/><circle cx="12" cy="9.5" r="2.5" fill="none" stroke="currentColor" stroke-width="2"/></symbol>
<symbol id="clock" viewBox="0 0 24 24"><circle cx="12" cy="12" r="9" fill="none" stroke="currentColor" stroke-width="2"/><path fill="none" stroke="currentColor" stroke-width="2" stroke-linecap="round" d="M12 7v5l3 2"/></symbol>
<symbol id="train" viewBox="0 0 24 24"><rect x="5" y="3" width="14" height="14" rx="4" fill="none" stroke="currentColor" stroke-width="2"/><path fill="none" stroke="currentColor" stroke-width="2" stroke-linecap="round" d="M5 11h14M8 21l2-4M16 21l-2-4"/></symbol>
<symbol id="talk" viewBox="0 0 24 24"><path fill="none" stroke="currentColor" stroke-width="2" stroke-linejoin="round" d="M3 5h12v8H8l-4 3v-3H3zM15 9h6v8h-1v3l-4-3h-4v-4"/></symbol>
<symbol id="check" viewBox="0 0 24 24"><path fill="none" stroke="currentColor" stroke-width="2.6" stroke-linecap="round" stroke-linejoin="round" d="M5 12.5l4.5 4.5L19 7"/></symbol>
<symbol id="search" viewBox="0 0 24 24"><circle cx="10.5" cy="10.5" r="6.5" fill="none" stroke="currentColor" stroke-width="2.2"/><path stroke="currentColor" stroke-width="2.4" stroke-linecap="round" d="M15.5 15.5L20 20"/></symbol>
<symbol id="arrow" viewBox="0 0 24 24"><path fill="none" stroke="currentColor" stroke-width="2.2" stroke-linecap="round" stroke-linejoin="round" d="M12 19V5M6 11l6-6 6 6"/></symbol>
<symbol id="plus" viewBox="0 0 24 24"><path fill="none" stroke="currentColor" stroke-width="2.4" stroke-linecap="round" d="M12 5v14M5 12h14"/></symbol>
<symbol id="bag" viewBox="0 0 24 24"><path fill="none" stroke="currentColor" stroke-width="2" stroke-linejoin="round" d="M5 8h14l-1 13H6z"/><path fill="none" stroke="currentColor" stroke-width="2" stroke-linecap="round" d="M9 8V6a3 3 0 016 0v2"/></symbol>
</svg>
