<svg xmlns="http://www.w3.org/2000/svg" viewBox="0 0 560 420" width="560" height="420" role="img" aria-labelledby="t"><title id="t">Street map: Verbena Pharmacy at 214 Court Street on the corner of Warren Street, a 4-minute walk from the Bergen Street F and G station at Smith Street</title><rect width="560" height="420" fill="#DCE5D8"/><rect x="14" y="14" width="154" height="90" rx="10" fill="#F7F2EA"/><rect x="14" y="132" width="154" height="90" rx="10" fill="#F7F2EA"/><rect x="14" y="250" width="154" height="90" rx="10" fill="#F7F2EA"/><rect x="14" y="368" width="154" height="90" rx="10" fill="#F7F2EA"/><rect x="210" y="14" width="114" height="90" rx="10" fill="#F7F2EA"/><rect x="210" y="132" width="114" height="90" rx="10" fill="#F7F2EA"/><rect x="210" y="250" width="114" height="90" rx="10" fill="#F7F2EA"/><rect x="210" y="368" width="114" height="90" rx="10" fill="#F7F2EA"/><rect x="366" y="14" width="172" height="90" rx="10" fill="#F7F2EA"/><rect x="366" y="132" width="172" height="90" rx="10" fill="#F7F2EA"/><rect x="366" y="250" width="172" height="90" rx="10" fill="#F7F2EA"/><rect x="366" y="368" width="172" height="90" rx="10" fill="#F7F2EA"/><rect x="20" y="20" width="11" height="14" rx="3" fill="#B98A6E"/><rect x="20" y="84" width="11" height="14" rx="3" fill="#C9A08A"/><rect x="34" y="20" width="15" height="14" rx="3" fill="#B98A6E"/><rect x="34" y="84" width="15" height="14" rx="3" fill="#B98A6E"/><rect x="52" y="20" width="11" height="14" rx="3" fill="#C9A08A"/><rect x="52" y="84" width="11" height="14" rx="3" fill="#C9A08A"/><rect x="66" y="20" width="11" height="14" rx="3" fill="#B98A6E"/><rect x="66" y="84" width="11" height="14" rx="3" fill="#D7B9A4"/><rect x="80" y="20" width="13" height="14" rx="3" fill="#C9A08A"/><rect x="80" y="84" width="13" height="14" rx="3" fill="#C9A08A"/><rect x="96" y="20" width="15" height="14" rx="3" fill="#D7B9A4"/><rect x="96" y="84" width="15" height="14" rx="3" fill="#B98A6E"/><rect x="114" y="20" width="13" height="14" rx="3" fill="#C9A08A"/><rect x="114" y="84" width="13" height="14" rx="3" fill="#C9A08A"/><rect x="130" y="20" width="13" height="14" rx="3" fill="#C9A08A"/><rect x="130" y="84" width="13" height="14" rx="3" fill="#C9A08A"/><rect x="146" y="20" width="15" height="14" rx="3" fill="#B98A6E"/><rect x="146" y="84" width="15" height="14" rx="3" fill="#B98A6E"/><rect x="20" y="138" width="11" height="14" rx="3" fill="#C9A08A"/><rect x="20" y="202" width="11" height="14" rx="3" fill="#B98A6E"/><rect x="34" y="138" width="13" height="14" rx="3" fill="#D7B9A4"/><rect x="34" y="202" width="13" height="14" rx="3" fill="#D7B9A4"/><rect x="50" y="138" width="13" height="14" rx="3" fill="#C9A08A"/><rect x="50" y="202" width="13" height="14" rx="3" fill="#D7B9A4"/><rect x="66" y="138" width="13" height="14" rx="3" fill="#D7B9A4"/><rect x="66" y="202" width="13" height="14" rx="3" fill="#B98A6E"/><rect x="82" y="138" width="15" height="14" rx="3" fill="#C9A08A"/><rect x="82" y="202" width="15" height="14" rx="3" fill="#C9A08A"/><rect x="100" y="138" width="11" height="14" rx="3" fill="#B98A6E"/><rect x="100" y="202" width="11" height="14" rx="3" fill="#B98A6E"/><rect x="114" y="138" width="11" height="14" rx="3" fill="#D7B9A4"/><rect x="114" y="202" width="11" height="14" rx="3" fill="#B98A6E"/><rect x="128" y="138" width="11" height="14" rx="3" fill="#B98A6E"/><rect x="128" y="202" width="11" height="14" rx="3" fill="#D7B9A4"/><rect x="142" y="138" width="15" height="14" rx="3" fill="#B98A6E"/><rect x="142" y="202" width="15" height="14" rx="3" fill="#D7B9A4"/><rect x="20" y="256" width="11" height="14" rx="3" fill="#B98A6E"/><rect x="20" y="320" width="11" height="14" rx="3" fill="#B98A6E"/><rect x="34" y="256" width="15" height="14" rx="3" fill="#B98A6E"/><rect x="34" y="320" width="15" height="14" rx="3" fill="#B98A6E"/><rect x="52" y="256" width="13" height="14" rx="3" fill="#C9A08A"/><rect x="52" y="320" width="13" height="14" rx="3" fill="#C9A08A"/><rect x="68" y="256" width="13" height="14" rx="3" fill="#B98A6E"/><rect x="68" y="320" width="13" height="14" rx="3" fill="#C9A08A"/><rect x="84" y="256" width="11" height="14" rx="3" fill="#C9A08A"/><rect x="84" y="320" width="11" height="14" rx="3" fill="#B98A6E"/><rect x="98" y="256" width="15" height="14" rx="3" fill="#B98A6E"/><rect x="98" y="320" width="15" height="14" rx="3" fill="#D7B9A4"/><rect x="116" y="256" width="15" height="14" rx="3" fill="#D7B9A4"/><rect x="116" y="320" width="15" height="14" rx="3" fill="#B98A6E"/><rect x="134" y="256" width="15" height="14" rx="3" fill="#B98A6E"/><rect x="134" y="320" width="15" height="14" rx="3" fill="#C9A08A"/><rect x="152" y="256" width="15" height="14" rx="3" fill="#C9A08A"/><rect x="152" y="320" width="15" height="14" rx="3" fill="#C9A08A"/><rect x="20" y="374" width="13" height="14" rx="3" fill="#C9A08A"/><rect x="20" y="438" width="13" height="14" rx="3" fill="#D7B9A4"/><rect x="36" y="374" width="15" height="14" rx="3" fill="#B98A6E"/><rect x="36" y="438" width="15" height="14" rx="3" fill="#B98A6E"/><rect x="54" y="374" width="11" height="14" rx="3" fill="#B98A6E"/><rect x="54" y="438" width="11" height="14" rx="3" fill="#B98A6E"/><rect x="68" y="374" width="15" height="14" rx="3" fill="#D7B9A4"/><rect x="68" y="438" width="15" height="14" rx="3" fill="#B98A6E"/><rect x="86" y="374" width="15" height="14" rx="3" fill="#D7B9A4"/><rect x="86" y="438" width="15" height="14" rx="3" fill="#C9A08A"/><rect x="104" y="374" width="13" height="14" rx="3" fill="#C9A08A"/><rect x="104" y="438" width="13" height="14" rx="3" fill="#C9A08A"/><rect x="120" y="374" width="15" height="14" rx="3" fill="#C9A08A"/><rect x="120" y="438" width="15" height="14" rx="3" fill="#B98A6E"/><rect x="138" y="374" width="15" height="14" rx="3" fill="#D7B9A4"/><rect x="138" y="438" width="15" height="14" rx="3" fill="#C9A08A"/><rect x="216" y="20" width="11" height="14" rx="3" fill="#B98A6E"/><rect x="216" y="84" width="11" height="14" rx="3" fill="#C9A08A"/><rect x="230" y="20" width="13" height="14" rx="3" fill="#B98A6E"/><rect x="230" y="84" width="13" height="14" rx="3" fill="#C9A08A"/><rect x="246" y="20" width="11" height="14" rx="3" fill="#B98A6E"/><rect x="246" y="84" width="11" height="14" rx="3" fill="#D7B9A4"/><rect x="260" y="20" width="11" height="14" rx="3" fill="#B98A6E"/><rect x="260" y="84" width="11" height="14" rx="3" fill="#D7B9A4"/><rect x="274" y="20" width="15" height="14" rx="3" fill="#B98A6E"/><rect x="274" y="84" width="15" height="14" rx="3" fill="#C9A08A"/><rect x="292" y="20" width="13" height="14" rx="3" fill="#B98A6E"/><rect x="292" y="84" width="13" height="14" rx="3" fill="#B98A6E"/><rect x="308" y="20" width="11" height="14" rx="3" fill="#D7B9A4"/><rect x="308" y="84" width="11" height="14" rx="3" fill="#B98A6E"/><rect x="216" y="138" width="15" height="14" rx="3" fill="#D7B9A4"/><rect x="216" y="202" width="15" height="14" rx="3" fill="#C9A08A"/><rect x="234" y="138" width="13" height="14" rx="3" fill="#D7B9A4"/><rect x="234" y="202" width="13" height="14" rx="3" fill="#C9A08A"/><rect x="250" y="138" width="13" height="14" rx="3" fill="#B98A6E"/><rect x="250" y="202" width="13" height="14" rx="3" fill="#C9A08A"/><rect x="266" y="138" width="13" height="14" rx="3" fill="#B98A6E"/><rect x="266" y="202" width="13" height="14" rx="3" fill="#D7B9A4"/><rect x="282" y="138" width="11" height="14" rx="3" fill="#B98A6E"/><rect x="282" y="202" width="11" height="14" rx="3" fill="#D7B9A4"/><rect x="296" y="138" width="11" height="14" rx="3" fill="#B98A6E"/><rect x="296" y="202" width="11" height="14" rx="3" fill="#C9A08A"/><rect x="216" y="256" width="13" height="14" rx="3" fill="#C9A08A"/><rect x="216" y="320" width="13" height="14" rx="3" fill="#B98A6E"/><rect x="232" y="256" width="13" height="14" rx="3" fill="#B98A6E"/><rect x="232" y="320" width="13" height="14" rx="3" fill="#D7B9A4"/><rect x="248" y="256" width="11" height="14" rx="3" fill="#B98A6E"/><rect x="248" y="320" width="11" height="14" rx="3" fill="#C9A08A"/><rect x="262" y="256" width="13" height="14" rx="3" fill="#C9A08A"/><rect x="262" y="320" width="13" height="14" rx="3" fill="#C9A08A"/><rect x="278" y="256" width="11" height="14" rx="3" fill="#C9A08A"/><rect x="278" y="320" width="11" height="14" rx="3" fill="#C9A08A"/><rect x="292" y="256" width="15" height="14" rx="3" fill="#C9A08A"/><rect x="292" y="320" width="15" height="14" rx="3" fill="#D7B9A4"/><rect x="216" y="374" width="15" height="14" rx="3" fill="#C9A08A"/><rect x="216" y="438" width="15" height="14" rx="3" fill="#D7B9A4"/><rect x="234" y="374" width="11" height="14" rx="3" fill="#D7B9A4"/><rect x="234" y="438" width="11" height="14" rx="3" fill="#B98A6E"/><rect x="248" y="374" width="15" height="14" rx="3" fill="#C9A08A"/><rect x="248" y="438" width="15" height="14" rx="3" fill="#B98A6E"/><rect x="266" y="374" width="11" height="14" rx="3" fill="#C9A08A"/><rect x="266" y="438" width="11" height="14" rx="3" fill="#D7B9A4"/><rect x="280" y="374" width="13" height="14" rx="3" fill="#B98A6E"/><rect x="280" y="438" width="13" height="14" rx="3" fill="#D7B9A4"/><rect x="296" y="374" width="11" height="14" rx="3" fill="#B98A6E"/><rect x="296" y="438" width="11" height="14" rx="3" fill="#C9A08A"/><rect x="372" y="20" width="11" height="14" rx="3" fill="#B98A6E"/><rect x="372" y="84" width="11" height="14" rx="3" fill="#B98A6E"/><rect x="386" y="20" width="13" height="14" rx="3" fill="#C9A08A"/><rect x="386" y="84" width="13" height="14" rx="3" fill="#C9A08A"/><rect x="402" y="20" width="13" height="14" rx="3" fill="#B98A6E"/><rect x="402" y="84" width="13" height="14" rx="3" fill="#C9A08A"/><rect x="418" y="20" width="15" height="14" rx="3" fill="#B98A6E"/><rect x="418" y="84" width="15" height="14" rx="3" fill="#C9A08A"/><rect x="436" y="20" width="13" height="14" rx="3" fill="#C9A08A"/><rect x="436" y="84" width="13" height="14" rx="3" fill="#C9A08A"/><rect x="452" y="20" width="11" height="14" rx="3" fill="#B98A6E"/><rect x="452" y="84" width="11" height="14" rx="3" fill="#B98A6E"/><rect x="466" y="20" width="11" height="14" rx="3" fill="#D7B9A4"/><rect x="466" y="84" width="11" height="14" rx="3" fill="#C9A08A"/><rect x="480" y="20" width="11" height="14" rx="3" fill="#B98A6E"/><rect x="480" y="84" width="11" height="14" rx="3" fill="#B98A6E"/><rect x="494" y="20" width="11" height="14" rx="3" fill="#B98A6E"/><rect x="494" y="84" width="11" height="14" rx="3" fill="#C9A08A"/><rect x="508" y="20" width="13" height="14" rx="3" fill="#D7B9A4"/><rect x="508" y="84" width="13" height="14" rx="3" fill="#C9A08A"/><rect x="372" y="138" width="15" height="14" rx="3" fill="#B98A6E"/><rect x="372" y="202" width="15" height="14" rx="3" fill="#D7B9A4"/><rect x="390" y="138" width="15" height="14" rx="3" fill="#D7B9A4"/><rect x="390" y="202" width="15" height="14" rx="3" fill="#D7B9A4"/><rect x="408" y="138" width="11" height="14" rx="3" fill="#B98A6E"/><rect x="408" y="202" width="11" height="14" rx="3" fill="#B98A6E"/><rect x="422" y="138" width="11" height="14" rx="3" fill="#B98A6E"/><rect x="422" y="202" width="11" height="14" rx="3" fill="#C9A08A"/><rect x="436" y="138" width="15" height="14" rx="3" fill="#C9A08A"/><rect x="436" y="202" width="15" height="14" rx="3" fill="#B98A6E"/><rect x="454" y="138" width="13" height="14" rx="3" fill="#D7B9A4"/><rect x="454" y="202" width="13" height="14" rx="3" fill="#B98A6E"/><rect x="470" y="138" width="15" height="14" rx="3" fill="#B98A6E"/><rect x="470" y="202" width="15" height="14" rx="3" fill="#B98A6E"/><rect x="488" y="138" width="15" height="14" rx="3" fill="#C9A08A"/><rect x="488" y="202" width="15" height="14" rx="3" fill="#D7B9A4"/><rect x="506" y="138" width="15" height="14" rx="3" fill="#B98A6E"/><rect x="506" y="202" width="15" height="14" rx="3" fill="#B98A6E"/><rect x="372" y="256" width="13" height="14" rx="3" fill="#B98A6E"/><rect x="372" y="320" width="13" height="14" rx="3" fill="#C9A08A"/><rect x="388" y="256" width="13" height="14" rx="3" fill="#D7B9A4"/><rect x="388" y="320" width="13" height="14" rx="3" fill="#D7B9A4"/><rect x="404" y="256" width="11" height="14" rx="3" fill="#C9A08A"/><rect x="404" y="320" width="11" height="14" rx="3" fill="#B98A6E"/><rect x="418" y="256" width="15" height="14" rx="3" fill="#C9A08A"/><rect x="418" y="320" width="15" height="14" rx="3" fill="#B98A6E"/><rect x="436" y="256" width="15" height="14" rx="3" fill="#C9A08A"/><rect x="436" y="320" width="15" height="14" rx="3" fill="#C9A08A"/><rect x="454" y="256" width="15" height="14" rx="3" fill="#D7B9A4"/><rect x="454" y="320" width="15" height="14" rx="3" fill="#B98A6E"/><rect x="472" y="256" width="15" height="14" rx="3" fill="#B98A6E"/><rect x="472" y="320" width="15" height="14" rx="3" fill="#D7B9A4"/><rect x="490" y="256" width="13" height="14" rx="3" fill="#B98A6E"/><rect x="490" y="320" width="13" height="14" rx="3" fill="#C9A08A"/><rect x="506" y="256" width="11" height="14" rx="3" fill="#C9A08A"/><rect x="506" y="320" width="11" height="14" rx="3" fill="#C9A08A"/><rect x="520" y="256" width="11" height="14" rx="3" fill="#D7B9A4"/><rect x="520" y="320" width="11" height="14" rx="3" fill="#B98A6E"/><rect x="372" y="374" width="11" height="14" rx="3" fill="#B98A6E"/><rect x="372" y="438" width="11" height="14" rx="3" fill="#B98A6E"/><rect x="386" y="374" width="11" height="14" rx="3" fill="#D7B9A4"/><rect x="386" y="438" width="11" height="14" rx="3" fill="#C9A08A"/><rect x="400" y="374" width="11" height="14" rx="3" fill="#C9A08A"/><rect x="400" y="438" width="11" height="14" rx="3" fill="#D7B9A4"/><rect x="414" y="374" width="15" height="14" rx="3" fill="#B98A6E"/><rect x="414" y="438" width="15" height="14" rx="3" fill="#D7B9A4"/><rect x="432" y="374" width="13" height="14" rx="3" fill="#D7B9A4"/><rect x="432" y="438" width="13" height="14" rx="3" fill="#B98A6E"/><rect x="448" y="374" width="11" height="14" rx="3" fill="#C9A08A"/><rect x="448" y="438" width="11" height="14" rx="3" fill="#C9A08A"/><rect x="462" y="374" width="15" height="14" rx="3" fill="#D7B9A4"/><rect x="462" y="438" width="15" height="14" rx="3" fill="#C9A08A"/><rect x="480" y="374" width="13" height="14" rx="3" fill="#D7B9A4"/><rect x="480" y="438" width="13" height="14" rx="3" fill="#B98A6E"/><rect x="496" y="374" width="15" height="14" rx="3" fill="#C9A08A"/><rect x="496" y="438" width="15" height="14" rx="3" fill="#C9A08A"/><rect x="514" y="374" width="13" height="14" rx="3" fill="#C9A08A"/><rect x="514" y="438" width="13" height="14" rx="3" fill="#D7B9A4"/><text x="98" y="113" text-anchor="middle" font-family="Nunito, sans-serif" font-size="13" font-weight="800" fill="#554C45">Bergen St</text><text x="98" y="231" text-anchor="middle" font-family="Nunito, sans-serif" font-size="13" font-weight="800" fill="#554C45">Warren St</text><text x="98" y="349" text-anchor="middle" font-family="Nunito, sans-serif" font-size="13" font-weight="800" fill="#554C45">Baltic St</text><text x="346" y="60" text-anchor="middle" font-family="Nunito, sans-serif" font-size="13" font-weight="800" fill="#554C45" transform="rotate(90 346 60)">Smith St</text><rect x="182" y="0" width="28" height="420" fill="#FFFCF7" opacity=".9"/><text x="196" y="300" text-anchor="middle" font-family="Nunito, sans-serif" font-size="14" font-weight="800" fill="#B8664A" transform="rotate(90 196 300)">Court St</text><g transform="translate(352 118)"><circle cx="-12" r="13" fill="#E2561B"/><text x="-12" y="5" text-anchor="middle" font-family="Nunito, sans-serif" font-size="13" font-weight="900" fill="#fff">F</text><circle cx="16" r="13" fill="#5C9E3A"/><text x="16" y="5" text-anchor="middle" font-family="Nunito, sans-serif" font-size="13" font-weight="900" fill="#fff">G</text></g><rect x="388" y="134" width="132" height="24" rx="12" fill="#FFFCF7"/><text x="454" y="151" text-anchor="middle" font-family="Nunito, sans-serif" font-size="12" font-weight="800" fill="#2E2925">Bergen St station</text><path d="M352 140 V208 H212" fill="none" stroke="#8E7BBE" stroke-width="4" stroke-dasharray="1 9" stroke-linecap="round"/><rect x="250" y="176" width="78" height="22" rx="11" fill="#ECE6F5"/><text x="289" y="192" text-anchor="middle" font-family="Nunito, sans-serif" font-size="11.5" font-weight="800" fill="#4E3F80">4 min walk</text><circle cx="196" cy="236" r="30" fill="#B8664A" opacity=".18"/><path d="M196 258 C182 242 176 230 176 220 A20 20 0 0 1 216 220 C216 230 210 242 196 258Z" fill="#B8664A"/><circle cx="196" cy="219" r="8" fill="#FFFCF7"/><rect x="40" y="254" width="146" height="44" rx="14" fill="#FFFCF7"/><text x="113" y="273" text-anchor="middle" font-family="Nunito, sans-serif" font-size="13" font-weight="800" fill="#2F4635">Verbena Pharmacy</text><text x="113" y="290" text-anchor="middle" font-family="Nunito, sans-serif" font-size="11.5" font-weight="800" fill="#554C45">214 Court St</text><rect x="214" y="300" width="56" height="22" rx="6" fill="#3F5B45"/><text x="242" y="316" text-anchor="middle" font-family="Nunito, sans-serif" font-size="11" font-weight="800" fill="#F7F2EA">B57 B61</text><g transform="translate(520 380)"><circle r="20" fill="#FFFCF7"/><path d="M0 -14 L6 4 L0 0 L-6 4Z" fill="#3F5B45"/><text y="14" text-anchor="middle" font-family="Nunito, sans-serif" font-size="10" font-weight="900" fill="#3F5B45">N</text></g></svg>