<svg xmlns="http://www.w3.org/2000/svg" viewBox="0 0 600 440" width="600" height="440" role="img" aria-labelledby="t"><title id="t">A golden dog and a gray cat sitting beside a Verbena Pharmacy bag</title><rect width="600" height="440" fill="#DCE5D8"/><rect x="0" y="352" width="600" height="88" fill="#E8DCCB"/><ellipse cx="300" cy="372" rx="260" ry="14" fill="#D9CBB6"/><path d="M258 170 C258 128 342 128 342 170" fill="none" stroke="#2F4635" stroke-width="7"/><path d="M226 168H374L362 372H238Z" fill="#FFFCF7"/><path d="M226 168H374L372 196H228Z" fill="#E8DCCB"/><g transform="translate(300 300) scale(1.7)"><path d="M0 0 C0 -10 -1 -18 0 -30" fill="none" stroke="#3F5B45" stroke-width="2.6" stroke-linecap="round"/><path d="M0 -12 C-7 -13 -11 -18 -11 -22 C-6 -22 -1 -18 0 -12Z" fill="#3F5B45"/><path d="M0 -18 C7 -19 11 -24 11 -28 C6 -28 1 -24 0 -18Z" fill="#3F5B45"/><g><circle cx="0" cy="-38" r="4.4" fill="#B7A8D6"/><circle cx="-6.5" cy="-35" r="3.9" fill="#8E7BBE"/><circle cx="6.5" cy="-35" r="3.9" fill="#8E7BBE"/><circle cx="-4" cy="-42.5" r="3.7" fill="#8E7BBE"/><circle cx="4" cy="-42.5" r="3.7" fill="#B7A8D6"/><circle cx="0" cy="-31.5" r="3.2" fill="#B7A8D6"/><circle cx="-8.6" cy="-40" r="2.8" fill="#B7A8D6"/><circle cx="8.6" cy="-40" r="2.8" fill="#8E7BBE"/></g><circle cx="0" cy="-38" r="1" fill="#F7F2EA"/><circle cx="-6.5" cy="-35" r="1" fill="#F7F2EA"/><circle cx="6.5" cy="-35" r="1" fill="#F7F2EA"/><circle cx="-4" cy="-42.5" r="1" fill="#F7F2EA"/><circle cx="4" cy="-42.5" r="1" fill="#F7F2EA"/></g><text x="300" y="340" text-anchor="middle" font-family="Fraunces, Georgia, serif" font-size="20" font-weight="600" fill="#2F4635">Verbena</text><rect x="318" y="132" width="34" height="46" rx="8" fill="#B8664A"/><rect x="314" y="122" width="42" height="14" rx="4" fill="#FFFCF7"/><rect x="322" y="146" width="26" height="18" rx="3" fill="#FFFCF7"/><ellipse cx="128" cy="300" rx="78" ry="70" fill="#D9A35F"/><ellipse cx="96" cy="356" rx="22" ry="16" fill="#D9A35F"/><ellipse cx="160" cy="358" rx="22" ry="16" fill="#D9A35F"/><path d="M50 300 C18 290 16 254 30 240" stroke="#D9A35F" stroke-width="16" stroke-linecap="round" fill="none"/><ellipse cx="138" cy="300" rx="34" ry="50" fill="#F2D3A6"/><circle cx="140" cy="186" r="62" fill="#D9A35F"/><path d="M88 150 C64 160 60 214 80 236 C96 222 100 186 98 160Z" fill="#B9834A"/><path d="M192 150 C216 160 220 214 200 236 C184 222 180 186 182 160Z" fill="#B9834A"/><ellipse cx="140" cy="214" rx="34" ry="26" fill="#F2D3A6"/><ellipse cx="140" cy="200" rx="11" ry="8" fill="#2E2925"/><circle cx="116" cy="176" r="5.5" fill="#2E2925"/><circle cx="164" cy="176" r="5.5" fill="#2E2925"/><path d="M126 222 Q140 236 154 222" fill="none" stroke="#2E2925" stroke-width="3" stroke-linecap="round"/><path d="M134 230 Q140 252 148 232Z" fill="#E07A6A"/><path d="M92 236 Q140 262 188 236" stroke="#B8664A" stroke-width="10" fill="none" stroke-linecap="round"/><circle cx="140" cy="258" r="9" fill="#B7A8D6"/><path d="M520 360 C580 360 590 300 560 280" stroke="#5E5A63" stroke-width="14" stroke-linecap="round" fill="none"/><path d="M420 362 C410 300 430 238 470 238 C510 238 530 300 520 362Z" fill="#5E5A63"/><path d="M452 362 C448 320 456 280 470 280 C484 280 492 320 488 362Z" fill="#ECE6F5"/><path d="M420 170 L428 112 L462 146Z" fill="#5E5A63"/><path d="M520 170 L512 112 L478 146Z" fill="#5E5A63"/><path d="M430 154 L432 128 L450 146Z" fill="#B7A8D6"/><path d="M510 154 L508 128 L490 146Z" fill="#B7A8D6"/><ellipse cx="470" cy="190" rx="56" ry="50" fill="#5E5A63"/><ellipse cx="470" cy="210" rx="26" ry="20" fill="#ECE6F5"/><ellipse cx="450" cy="184" rx="7" ry="9" fill="#E7D36B"/><ellipse cx="490" cy="184" rx="7" ry="9" fill="#E7D36B"/><ellipse cx="450" cy="185" rx="2.5" ry="7" fill="#2E2925"/><ellipse cx="490" cy="185" rx="2.5" ry="7" fill="#2E2925"/><path d="M465 202 H475 L470 208Z" fill="#E07A6A"/><path d="M470 208 Q464 216 458 212 M470 208 Q476 216 482 212" fill="none" stroke="#2E2925" stroke-width="2.2" stroke-linecap="round"/><path d="M430 206 H400 M432 214 L404 222 M510 206 H540 M508 214 L536 222" stroke="#FFFCF7" stroke-width="2" stroke-linecap="round"/><path d="M202 384 a7 7 0 1 1 6 -6 h12 a7 7 0 1 1 6 6 a7 7 0 1 1 -6 6 h-12 a7 7 0 1 1 -6 -6Z" fill="#B8664A"/><path d="M378 386 a7 7 0 1 1 6 -6 h12 a7 7 0 1 1 6 6 a7 7 0 1 1 -6 6 h-12 a7 7 0 1 1 -6 -6Z" fill="#8E7BBE"/><path d="M400 392 a7 7 0 1 1 6 -6 h12 a7 7 0 1 1 6 6 a7 7 0 1 1 -6 6 h-12 a7 7 0 1 1 -6 -6Z" fill="#B8664A"/></svg>