<svg xmlns="http://www.w3.org/2000/svg" viewBox="0 0 240 300" width="240" height="300" role="img" aria-labelledby="t"><title id="t">Illustrated portrait of Grace Liu</title><rect width="240" height="300" fill="#F4E1D6"/><path d="M64 128 C60 70 100 62 120 62 C140 62 180 70 176 128 L180 200 H60Z" fill="#2E2925"/><rect x="104" y="170" width="32" height="50" rx="14" fill="#F0C9A4"/><path d="M24 300 C24 236 64 206 120 206 C176 206 216 236 216 300Z" fill="#6F8A6F"/><ellipse cx="72" cy="140" rx="9" ry="12" fill="#F0C9A4"/><ellipse cx="168" cy="140" rx="9" ry="12" fill="#F0C9A4"/><ellipse cx="120" cy="134" rx="48" ry="54" fill="#F0C9A4"/><path d="M70 118 C70 80 94 70 120 70 C146 70 170 80 170 118 C150 108 130 104 120 112 C108 104 90 108 70 118Z" fill="#2E2925"/><circle cx="106.5" cy="138" r="2.8800000000000003" fill="#2E2925"/><circle cx="133.5" cy="138" r="2.8800000000000003" fill="#2E2925"/><circle cx="98.4" cy="149.7" r="6.3" fill="#B8664A" opacity=".22"/><circle cx="141.6" cy="149.7" r="6.3" fill="#B8664A" opacity=".22"/><path d="M110.1 155.1 Q120 165.0 129.9 155.1" fill="none" stroke="#2E2925" stroke-width="2.7" stroke-linecap="round"/><rect x="150" y="248" width="34" height="10" rx="3" fill="#FFFCF7"/></svg>